# xmcd
#
# Track frame offsets: 
#        150
#        13862
#        28096
#        42488
#        56134
#        68579
#        81642
#        93718
#        106969
#        119600
#        134357
#        147270
#        160844
#        174893
#        187666
#        201952
#        215839
#        228354
#        241436
#        254000
#        268658
#        282373
#        294547
#
# Disc length: 4142 seconds
#
# Revision: 1
# Processed by: cddbd v1.5.2PL0 Copyright (c) Steve Scherf et al.
# Submitted via: ExactAudioCopy v0.99pb1
#
DISCID=67102c17
DTITLE=Texas Blues - CD 1
DYEAR=2001
DGENRE=Blues
TTITLE0=Rolled from Side to Side Blues - Little Hat Jones
TTITLE1=Two String Blues - Little Hat Jones
TTITLE2=Double Crossing Blues - Texas Alexander 
TTITLE3=Johnny Behren's Blues - Texas Alexander
TTITLE4=Rambler Blues - Blind Lemon Jefferson
TTITLE5=Dry Southern Blues - Blind Lemon Jefferson
TTITLE6=Jim Nappy - Hattie Burleson
TTITLE7=Don't Sell It-Don't Give It Away - Oscar Woods 
TTITLE8=Triflin' Woman - Black Ace
TTITLE9=Texas Worried Blues - Henry Thomas
TTITLE10=Old Country Stomp - Henry Thomas 
TTITLE11=Back Gnawing Blues - Ramblin' Thomas
TTITLE12=Down in Texas Blues - Jesse Thomas
TTITLE13=Dallas Rag - Coley Jones 
TTITLE14=Sugar Blues - Coley Jones 
TTITLE15=Texas and Pacific Blues - Frenchy Christian
TTITLE16=Seven Sisters Blues, Pt. 1 - Funny Paper Smith 
TTITLE17=Seven Sisters Blues, Pt. 2 - Funny Paper Smith
TTITLE18=Monkeyin' Around - Jake Jones
TTITLE19=Texas Blues - Willie Reed
TTITLE20=Dreaming Blues - Willie Reed
TTITLE21=Jack of All Trades - Bernice Edwards
TTITLE22=T.P. Window Blues - Jack Ranger
EXTD=YEAR: 2001
EXTT0=
EXTT1=
EXTT2=
EXTT3=
EXTT4=
EXTT5=
EXTT6=
EXTT7=
EXTT8=
EXTT9=
EXTT10=
EXTT11=
EXTT12=
EXTT13=
EXTT14=
EXTT15=
EXTT16=
EXTT17=
EXTT18=
EXTT19=
EXTT20=
EXTT21=
EXTT22=
PLAYORDER=
